<svg height="512" viewBox="0 0 59 58" width="512" xmlns="http://www.w3.org/2000/svg"><g id="001---Police-Car" fill="none"><path id="Shape" d="m3 36h10v5c0 1.1045695-.8954305 2-2 2h-6c-1.1045695 0-2-.8954305-2-2z" fill="#393f4a"/><path id="Shape" d="m13 6 2.42-4c.3532988-.61203127 1.0033592-.99218357 1.71-1h6.87l1.5 5z" fill="#3b97d3"/><path id="Shape" d="m41 6-2.42-4c-.3532988-.61203127-1.0033592-.99218357-1.71-1h-6.87l-2 5z" fill="#e64c3c"/><path id="Shape" d="m25 0h4c.5522847 0 1 .44771525 1 1v5h-6v-5c0-.55228475.4477153-1 1-1z" fill="#bdc3c7"/><path id="Shape" d="m48 18-2.6-10.39c-.1836551-.92435861-.9876914-1.59508314-1.93-1.61h-32.94c-.94230862.01491686-1.74634486.68564139-1.93 1.61l-2.6 10.39z" fill="#2c2f38"/><path id="Shape" d="m13 18c-.4062651.0023626-.77358-.2413038-.929371-.6165185-.1557909-.3752147-.0690889-.807391.219371-1.0934815l11-11c.3921222-.39212217 1.0278778-.39212217 1.42 0s.3921222 1.02787783 0 1.42l-11 11c-.1887188.1871865-.444197.2915368-.71.29z" fill="#d1d4d1"/><path id="Shape" d="m26 18c-.4062651.0023626-.77358-.2413038-.929371-.6165185-.1557909-.3752147-.0690889-.807391.219371-1.0934815l11-11c.2536586-.25365859.623374-.35272356.9698781-.25987808.346504.09284548.6171545.36349596.71.71000002.0928455.34650407-.0062195.7162195-.2598781.96987806l-11 11c-.1887188.1871865-.444197.2915368-.71.29z" fill="#d1d4d1"/><path id="Shape" d="m48.21 17.76-2.6-10.39c-.2942767-1.37048676-1.4983606-2.35451399-2.9-2.37h-31.4c-1.40163936.01548601-2.60572332.99951324-2.9 2.37l-2.6 10.39c-.10174137.352104-.00271263.7316542.25808457.989168s.64157158.3517261.99235836.245532c.35078677-.106194.61537432-.3957774.68955707-.7547l2.6-10.39c.0747694-.49303806.5013566-.85563718 1-.85h31.4c.4911597.01444369.9066177.36758297 1 .85l2.6 10.39c.1128155.4571833.5293028.7737136 1 .76.2876611-.0316229.5475166-.1863135.712442-.4241128.1649253-.2377994.2187455-.5353854.147558-.8158872z" fill="#ecf0f1"/><path id="Shape" d="m53 32.52c-2.27-1.59-5-.52-8-.52-5.18 0-9.7.81-12.12 5h-29.88c-1.1045695 0-2-.8954305-2-2 0-12.5-.12-11.93.36-13l10.64-1c32.7 0 23.78-.26 40.64 1 .49 1.08.36.9.36 10.52z" fill="#4482c3"/><path id="Shape" d="m52.64 22h-51.28c.42-.9.49-.85 4.64-5h42c3.7 3.7 4.19 4 4.64 5z" fill="#285680"/><path id="Shape" d="m11 30h-3c-3 0-3.93-4-2-4h5c.5522847 0 1 .4477153 1 1v2c0 .5522847-.4477153 1-1 1z" fill="#f5efca"/><path id="Shape" d="m43 30h3c3 0 3.93-4 2-4h-5c-.5522847 0-1 .4477153-1 1v2c0 .5522847.4477153 1 1 1z" fill="#f5efca"/><rect id="Rectangle-path" fill="#f3d55b" height="4" rx="1" width="22" x="16" y="26"/><path id="Shape" d="m53 32.52c-5.2912878-3.6843779-12.4146626-3.2785094-17.2532156.9830364-4.8385529 4.2615458-6.1408929 11.2766088-3.154341 16.9908782s9.4895864 8.6498683 15.7507162 7.1101862c6.2611297-1.539682 10.661044-7.1564385 10.6568404-13.6041008-.0029843-4.5774382-2.2435156-8.8643214-6-11.48z" fill="#e57e25"/><path id="Shape" d="m45 30v28c-7.7319865 0-14-6.2680135-14-14s6.2680135-14 14-14z" fill="#f29c1f"/><path id="Shape" d="m45 36v18.0000041c-.646808.0007643-1.2891258-.1074155-1.9-.3200041-3.1554109-.9558261-5.3589707-3.8056028-5.49-7.1 0-4 1.27-6.07-.49-8.54-.1758375-.2497284-.1507133-.588905.06-.81l1-1c.2400794-.2311277.6199206-.2311277.86 0 .7927117.6106428 1.7817782.9094975 2.78.84 2.37-.07 2.63-1.07 3.18-1.07z" fill="#f3d55b"/><path id="Shape" d="m52.88 38c-1.76 2.47-.49 4.48-.49 8.54-.1792313 4.0167052-3.375163 7.2429096-7.39 7.46v-18c.55 0 .81 1 3.16 1 .9982218.0694975 1.9872883-.2293572 2.78-.84.2400794-.2311277.6199206-.2311277.86 0l1 1c.2336064.2202882.2678243.5795756.08.84z" fill="#f0c419"/><path id="Shape" d="m49 43.68c-.0843151-.2523526-.26572-.4607006-.5040704-.5789374-.2383505-.1182369-.5139931-.1366133-.7659296-.0510626l-1.73.56v-1.61c0-.5522847-.4477153-1-1-1s-1 .4477153-1 1v1.61l-1.68-.56c-.5246705-.1767311-1.0932689.1053295-1.27.63s.1053295 1.0932689.63 1.27l1.76.58-1.27 1.92c-.2440793.4550261-.101585 1.0210631.3288453 1.306288s1.0072424.1958368 1.3311547-.206288l1.17-1.75 1.17 1.75c.1793781.3344065.5325821.5384678.9118826.5268341.3793006-.0116337.7193347-.2369575.8778815-.5817287.1585468-.3447711.1082846-.749577-.1297641-1.0451054l-1.27-1.92 1.76-.53c.2736383-.0723289.5038097-.2572283.6334279-.5088401s.1465413-.5463665.0465721-.8111599z" fill="#ecf0f1"/></g></svg>